<?xml version="1.0" ?><!DOCTYPE svg  PUBLIC '-//W3C//DTD SVG 1.1//EN'  'http://www.w3.org/Graphics/SVG/1.1/DTD/svg11.dtd'><svg enable-background="new 0 0 512 512" height="512px" id="Layer_1" version="1.1" viewBox="0 0 512 512" width="512px" xml:space="preserve" xmlns="http://www.w3.org/2000/svg" xmlns:xlink="http://www.w3.org/1999/xlink"><g><path d="M445.581,447.582h-22.685V252.237h20.572c4.971,0,9-4.029,9-9s-4.029-9-9-9h-20.572V124.596c0-4.971-4.029-9-9-9h-149.6   v-12.805h75.309c4.971,0,9-4.029,9-9V55.418c0-4.971-4.029-9-9-9h-84.309c-4.971,0-9,4.029-9,9v38.373v21.805H96.696   c-4.971,0-9,4.029-9,9v109.642H66.419c-4.971,0-9,4.029-9,9s4.029,9,9,9h24.798v106.04c0,4.971,4.029,9,9,9s9-4.029,9-9v-106.04   h29.527v195.345h-29.527v-39.305c0-4.971-4.029-9-9-9s-9,4.029-9,9v39.305H68.531c-4.971,0-9,4.029-9,9s4.029,9,9,9h31.686h47.527   h62.332h93.961h62.332h47.527h31.685c4.971,0,9-4.029,9-9S450.552,447.582,445.581,447.582z M264.297,64.418h66.309v20.373h-66.309   V64.418z M105.696,234.237V133.596h299.2v100.642h-38.527H147.744H105.696z M156.744,252.237h200.625v195.345h-44.332V321.394   c0-30.868-25.112-55.98-55.98-55.98s-55.98,25.112-55.98,55.98v126.188h-44.332V252.237z M295.037,321.394v5.796h-28.98V284.5   C282.668,288.553,295.037,303.552,295.037,321.394z M248.057,327.189h-28.98v-5.796c0-17.842,12.369-32.841,28.98-36.894V327.189z    M219.076,345.189h28.98v40.616h-28.98V345.189z M266.057,345.189h28.98v40.616h-28.98V345.189z M219.076,403.806h28.98v43.776   h-28.98V403.806z M266.057,447.582v-43.776h28.98v43.776H266.057z M375.369,447.582V252.237h29.527v195.345H375.369z"/><path d="M198.99,202.928v-38.021c0-4.971-4.029-9-9-9h-57.033c-4.971,0-9,4.029-9,9v38.021c0,4.971,4.029,9,9,9h57.033   C194.961,211.928,198.99,207.898,198.99,202.928z M180.99,193.928h-39.033v-20.021h39.033V193.928z"/><path d="M226.78,211.928h57.032c4.971,0,9-4.029,9-9v-38.021c0-4.971-4.029-9-9-9H226.78c-4.971,0-9,4.029-9,9v38.021   C217.78,207.898,221.81,211.928,226.78,211.928z M235.78,173.906h39.032v20.021H235.78V173.906z"/><path d="M320.604,211.928h57.032c4.971,0,9-4.029,9-9v-38.021c0-4.971-4.029-9-9-9h-57.032c-4.971,0-9,4.029-9,9v38.021   C311.604,207.898,315.633,211.928,320.604,211.928z M329.604,173.906h39.032v20.021h-39.032V173.906z"/></g></svg>