<?xml version="1.0" ?><!DOCTYPE svg  PUBLIC '-//W3C//DTD SVG 1.1//EN'  'http://www.w3.org/Graphics/SVG/1.1/DTD/svg11.dtd'><svg height="48px" id="Layer_1" style="enable-background:new 0 0 48 48;" version="1.1" viewBox="0 0 48 48" width="48px" xml:space="preserve" xmlns="http://www.w3.org/2000/svg" xmlns:xlink="http://www.w3.org/1999/xlink"><path d="M29.045,29.495" style="fill:none;stroke:#231F20;stroke-miterlimit:10;"/><path d="M21.03,36.584" style="fill:none;stroke:#231F20;stroke-miterlimit:10;"/><path d="M18.03,29.525" style="fill:none;stroke:#231F20;stroke-miterlimit:10;"/><path d="M17.201,29.51" style="fill:none;stroke:#231F20;stroke-miterlimit:10;"/><g><path d="M23.809,35.13c0,0-0.055,0.036-0.123,0.079   c-0.067,0.044-0.867-0.427-1.776-1.045l-5.208-3.545c-0.909-0.618-2.553-1.125-3.653-1.125h-3.93c-1.1,0-2-0.9-2-2V13.292   c0-1.1,0.9-2,2-2h14.414" style="fill:none;stroke:#231F20;stroke-miterlimit:10;"/></g><g><path d="M23.895,11.292h14.414c1.1,0,2,0.9,2,2v14.202c0,1.1-0.9,2-2,2   h-3.93c-1.101,0-2.744,0.507-3.654,1.125l-5.207,3.545c-0.91,0.618-1.709,1.089-1.776,1.045c-0.068-0.043-0.123-0.079-0.123-0.079" style="fill:none;stroke:#231F20;stroke-miterlimit:10;"/></g><line style="fill:none;stroke:#231F20;stroke-miterlimit:10;" x1="13.988" x2="31.863" y1="11.302" y2="11.302"/><path d="M19.191,20.834c0,1.059-0.858,1.916-1.917,1.916l0,0  c-1.059,0-1.917-0.857-1.917-1.916l0,0c0-1.059,0.858-1.917,1.917-1.917l0,0C18.333,18.917,19.191,19.775,19.191,20.834  L19.191,20.834z" style="fill:none;stroke:#231F20;stroke-miterlimit:10;"/><path d="M25.441,20.751c0,1.059-0.858,1.916-1.917,1.916l0,0  c-1.059,0-1.917-0.857-1.917-1.916l0,0c0-1.059,0.858-1.917,1.917-1.917l0,0C24.583,18.834,25.441,19.692,25.441,20.751  L25.441,20.751z" style="fill:none;stroke:#231F20;stroke-miterlimit:10;"/><path d="M31.774,20.834c0,1.059-0.858,1.916-1.917,1.916l0,0  c-1.059,0-1.916-0.857-1.916-1.916l0,0c0-1.059,0.857-1.917,1.916-1.917l0,0C30.916,18.917,31.774,19.775,31.774,20.834  L31.774,20.834z" style="fill:none;stroke:#231F20;stroke-miterlimit:10;"/></svg>